<?xml version="1.0" encoding="UTF-8"?>
<svg width="15px" height="17px" viewBox="0 0 15 17" version="1.1" xmlns="http://www.w3.org/2000/svg" xmlns:xlink="http://www.w3.org/1999/xlink">
    <title>daylight-sphere</title>
    <g id="Page-1" stroke="none" stroke-width="1" fill="none" fill-rule="evenodd">
        <g id="Mobile---light" transform="translate(-133.000000, -7.000000)">
            <g id="daylight-sphere" transform="translate(133.000000, 7.000000)">
                <circle id="Oval" fill="#7CE4FF" cx="7.5" cy="7.5" r="7.5"></circle>
                <g id="day-sky" transform="translate(1.036841, 0.486193)">
                    <circle id="Oval" fill="#FFD405" cx="5.46315877" cy="5.01380688" r="3.5"></circle>
                    <path d="M8.3840511,4.19275393 C9.02964932,4.18120655 9.67524741,4.16965918 10.3208456,4.1581118" id="Path-2" stroke="#FFD405" stroke-width="0.55"></path>
                    <path d="M7.67379933,2.43936932 C8.06816872,1.97571564 8.46253812,1.51206197 8.85690751,1.04840829" id="Path-3" stroke="#FFD405" stroke-width="0.55"></path>
                    <path d="M4.85969702,1.87683021 C4.88015406,1.25122014 4.90061109,0.625610071 4.92106812,0" id="Path-4" stroke="#FFD405" stroke-width="0.55"></path>
                    <path d="M5.43138024,8.35086573 C5.29949393,8.85631271 5.16760761,9.36175969 5.03572129,9.86720668" id="Path-5" stroke="#FFD405" stroke-width="0.55"></path>
                    <path d="M7.32561945,7.61388499 C7.76746792,7.94647297 8.20931639,8.27906096 8.65116486,8.61164894" id="Path-6" stroke="#FFD405" stroke-width="0.55"></path>
                    <path d="M2.28984818,8.43122846 C2.15075207,8.55297419 2.01165598,8.6747199 1.87255987,8.79646563" id="Path-7" stroke="#FFD405" stroke-width="0.55"></path>
                    <path d="M2.76270459,7.91810276 C2.55959965,8.08457261 2.35649474,8.25104243 2.1533898,8.41751228" id="Path-8" stroke="#FFD405" stroke-width="0.55"></path>
                    <path d="M2.32941407,8.41751228 C2.69740621,8.08410367 3.06539834,7.75069506 3.43339047,7.41728646" id="Path-9" stroke="#FFD405" stroke-width="0.55"></path>
                    <path d="M1,5.80739415 C1.49987845,5.78969207 1.9997569,5.77199 2.49963535,5.75428793" id="Path-10" stroke="#FFD405" stroke-width="0.55"></path>
                    <path d="M1.10093699,2.86351571 C1.52760391,3.25753343 1.95427075,3.65155108 2.38093766,4.04556881" id="Path-11" stroke="#FFD405" stroke-width="0.55"></path>
                    <path d="M8.43557469,6.26864456 C8.91757522,6.4532854 9.39957574,6.63792625 9.88157627,6.82256709" id="Path-12" stroke="#FFD405" stroke-width="0.55"></path>
                    <path d="M6.15552405,1.87436833 C6.40839408,1.40989403 6.66126411,0.945419735 6.91413414,0.480945435" id="Path-13" stroke="#FFD405" stroke-width="0.55"></path>
                    <path d="M3.19986376,1.94734543 C3.00138951,1.68726561 2.80291526,1.4271858 2.60444101,1.16710598" id="Path-14" stroke="#FFD405" stroke-width="0.55"></path>
                    <path d="M3.13866851,2.05988842 C3.28040235,2.26264166 3.42213616,2.46539487 3.56387,2.66814811" id="Path-15" stroke="#FFD405" stroke-width="0.55"></path>
                    <path d="M3.36410619,1.79277467 C3.38585278,2.12084923 3.40759937,2.44892373 3.42934596,2.77699829" id="Path-16" stroke="#FFD405" stroke-width="0.55"></path>
                    <path d="M2.32936975,10.4640722 C2.7553099,9.556911 2.33931134,9.24922523 3.29087403,8.86617111 C4.24243673,8.48311699 5.14042472,9.26711158 5.96315877,9.00128069 C6.78589282,8.7354498 6.17952202,7.82447114 7.10267511,7.26448647 C8.02582819,6.7045018 8.45415789,7.47247239 9.08309428,7.50207975 C9.71203067,7.5316871 10.0026891,7.15401428 10.3309388,7.26448647 C10.5497719,7.3381346 10.6548145,7.5926714 10.6460665,8.02809689 C10.429281,8.73018417 10.1941004,9.30882314 9.9405247,9.76401377 C9.56016111,10.4467997 9.51957476,10.668029 8.96503789,11.0456905 C8.59534665,11.2974648 8.08839326,11.4369428 7.44417774,11.4641244 C7.17842408,12.1982294 6.92381417,12.6221284 6.68034799,12.7358215 C5.9191767,13.0912707 5.04962809,13.289585 4.07170215,13.3307642 L2.93396321,13.0891133 C2.22145769,12.9329358 1.82132021,12.6308767 1.73355077,12.1829359 C1.60189661,11.5110247 1.9034296,11.3712335 2.32936975,10.4640722 Z" id="Path-17" fill="#F4F2F2" transform="translate(6.174465, 10.195687) rotate(30.000000) translate(-6.174465, -10.195687) "></path>
                    <path d="M7.06718529,8.04478195 C7.35291655,7.3213856 7.07385435,7.07602816 7.7121863,6.77056983 C8.35051825,6.46511151 8.95291095,7.09029125 9.50482144,6.87831008 C10.0567319,6.66632892 9.64996329,5.93988845 10.2692374,5.49334064 C10.8885114,5.04679283 11.1758457,5.65919457 11.5977519,5.68280432 C12.019658,5.70641407 12.2146389,5.40524695 12.434837,5.49334064 C12.5816357,5.55206976 12.6521009,5.7550447 12.6462325,6.10226545 C12.5008074,6.66212996 12.3430424,7.12355323 12.1729375,7.48653528 C11.9177802,8.03100836 11.8905538,8.20742293 11.5185567,8.50858099 C11.2705586,8.70935303 10.9304817,8.82057677 10.4983258,8.8422522 C10.3200517,9.42764854 10.149253,9.76567775 9.98592982,9.85633982 C9.47531717,10.1397852 8.89200231,10.2979267 8.23598524,10.3307642 L7.47276163,10.1380648 C6.99479519,10.0135245 6.72637301,9.77265389 6.66749508,9.41545307 C6.57917819,8.87965185 6.78145403,8.7681783 7.06718529,8.04478195 Z" id="Path-17-Copy" fill="#FFFDFD"></path>
                </g>
            </g>
        </g>
    </g>
</svg>